# xmcd
# 
# Track frame offsets:
#     182
#     13470
#     37007
#     55882
#     80432
# 
# Disc length: 1200
# 
# Revision: 2
# Processed by: cddbd v1.5.2PL0 Copyright (c) Steve Scherf et al.
# Submitted via: fre:ac v1.0.17
# 
DISCID=3d04ae05
DTITLE=Gracia - I Don't Think So! (Single)
DYEAR=2003
DGENRE=Pop
TTITLE0=I Don't Think So! (Radio Edit)
TTITLE1=I Don't Think So! (Extended Club Mix)
TTITLE2=I Don't Think So! (Swat Team Version)
TTITLE3=I Don't Think So! (Instrumental)
TTITLE4=Daten-CD
EXTD=
EXTT0=
EXTT1=
EXTT2=
EXTT3=
EXTT4=
PLAYORDER=
